<svg width="160" height="160" viewBox="0 0 160 160" fill="none" xmlns="http://www.w3.org/2000/svg">
<path d="M35.9161 140.676C45.4914 147.633 56.5773 152.225 68.2674 154.077C79.9575 155.928 91.9198 154.987 103.176 151.329C114.433 147.672 124.664 141.402 133.033 133.033C141.402 124.664 147.672 114.433 151.329 103.176C154.987 91.9198 155.928 79.9575 154.077 68.2674C152.225 56.5774 147.633 45.4915 140.676 35.9161C133.719 26.3408 124.595 18.5478 114.049 13.1745C103.504 7.80118 91.8358 5 80 4.99999" stroke="#25824F" stroke-width="10"/>
<path d="M80 4.99999C68.1643 4.99999 56.4965 7.80116 45.9507 13.1745C35.405 18.5478 26.2806 26.3407 19.3237 35.9161C12.3668 45.4914 7.77491 56.5773 5.92338 68.2674C4.07186 79.9575 5.01331 91.9198 8.67076 103.176" stroke="#FFB649" stroke-width="10"/>
<path d="M8.67075 103.176C13.5651 118.239 23.1025 131.367 35.9161 140.676" stroke="#DB4546" stroke-width="10"/>
<path d="M62.04 61.606C62.1987 59.5207 63.0033 57.8887 64.454 56.71C65.9047 55.5313 67.786 54.942 70.098 54.942C71.6393 54.942 72.9653 55.2253 74.076 55.792C75.2093 56.336 76.0593 57.084 76.626 58.036C77.2153 58.988 77.51 60.0647 77.51 61.266C77.51 62.6713 77.102 63.884 76.286 64.904C75.4927 65.924 74.45 66.5813 73.158 66.876V67.046C74.6313 67.4087 75.7987 68.1227 76.66 69.188C77.5213 70.2533 77.952 71.6473 77.952 73.37C77.952 74.662 77.6573 75.8293 77.068 76.872C76.4787 77.892 75.5947 78.6967 74.416 79.286C73.2373 79.8753 71.8207 80.17 70.166 80.17C67.7633 80.17 65.7913 79.5467 64.25 78.3C62.7087 77.0307 61.8473 75.24 61.666 72.928H64.658C64.8167 74.288 65.372 75.3987 66.324 76.26C67.276 77.1213 68.5453 77.552 70.132 77.552C71.7187 77.552 72.92 77.144 73.736 76.328C74.5747 75.4893 74.994 74.4127 74.994 73.098C74.994 71.398 74.4273 70.174 73.294 69.426C72.1607 68.678 70.4493 68.304 68.16 68.304H67.378V65.72H68.194C70.2793 65.6973 71.8547 65.3573 72.92 64.7C73.9853 64.02 74.518 62.9773 74.518 61.572C74.518 60.3707 74.1213 59.4073 73.328 58.682C72.5573 57.9567 71.4467 57.594 69.996 57.594C68.5907 57.594 67.4573 57.9567 66.596 58.682C65.7347 59.4073 65.2247 60.382 65.066 61.606H62.04ZM81.7555 77.518C84.6342 75.206 86.8895 73.3133 88.5215 71.84C90.1535 70.344 91.5248 68.7913 92.6355 67.182C93.7688 65.55 94.3355 63.952 94.3355 62.388C94.3355 60.9147 93.9728 59.7587 93.2475 58.92C92.5448 58.0587 91.4002 57.628 89.8135 57.628C88.2722 57.628 87.0708 58.1153 86.2095 59.09C85.3708 60.042 84.9175 61.3227 84.8495 62.932H81.8575C81.9482 60.3933 82.7188 58.4327 84.1695 57.05C85.6202 55.6673 87.4902 54.976 89.7795 54.976C92.1142 54.976 93.9615 55.622 95.3215 56.914C96.7042 58.206 97.3955 59.9853 97.3955 62.252C97.3955 64.1333 96.8288 65.9693 95.6955 67.76C94.5848 69.528 93.3155 71.092 91.8875 72.452C90.4595 73.7893 88.6348 75.3533 86.4135 77.144H98.1095V79.728H81.7555V77.518Z" fill="#E1E3E6"/>
<path d="M74.262 95.496V101.964H75.354V105.604H74.164V103H68.942V105.604H67.766V101.964H68.368C68.7973 101.367 69.152 100.718 69.432 100.018C69.7213 99.3087 69.936 98.5713 70.076 97.806C70.2253 97.0313 70.3047 96.2613 70.314 95.496H74.262ZM71.406 96.462C71.3687 97.0967 71.2707 97.7547 71.112 98.436C70.9533 99.108 70.748 99.752 70.496 100.368C70.2533 100.984 69.9687 101.516 69.642 101.964H73.072V96.462H71.406ZM78.0568 95.496V98.618H82.1308V95.496H83.3628V103H82.1308V99.654H78.0568V103H76.8248V95.496H78.0568ZM86.2008 103H84.7728L86.9148 99.85C86.6255 99.7753 86.3455 99.6587 86.0748 99.5C85.8042 99.332 85.5848 99.1033 85.4168 98.814C85.2488 98.5153 85.1648 98.1467 85.1648 97.708C85.1648 96.9893 85.4075 96.4433 85.8928 96.07C86.3782 95.6873 87.0222 95.496 87.8248 95.496H91.1848V103H89.9528V100.018H88.1328L86.2008 103ZM86.3548 97.722C86.3548 98.1513 86.5135 98.4733 86.8308 98.688C87.1575 98.8933 87.6102 98.996 88.1888 98.996H89.9528V96.518H87.9508C87.3815 96.518 86.9708 96.63 86.7188 96.854C86.4762 97.078 86.3548 97.3673 86.3548 97.722Z" fill="#76787A"/>
</svg>
